# xmcd
#
# Track frame offsets:
#	150
#	12237
#	23462
#	36537
#	52697
#	64057
#	85635
#	101352
#	119600
#	128995
#	144882
#	164425
#	178167
#	199142
#	212772
#	223197
#
# Disc length: 3182 seconds
#
# Revision: 0
# Processed by: cddbd v1.4PL0 Copyright (c) Steve Scherf et al.
# Submitted via: dBpowerAMP V4.0
#
DISCID=de0c6c10
DTITLE=Willie Nelson - On the Road Again
DYEAR=1900
DGENRE=Country
TTITLE0=Railroad Lady
TTITLE1=Heartaches of a Fool
TTITLE2=Good Hearted Woman
TTITLE3=Over the Rainbow
TTITLE4=On the Road Again
TTITLE5=City of New Orleans
TTITLE6=Mammas don't let your Babies grow up to be Cowboys
TTITLE7=Help me make it through the night
TTITLE8=If you've got the maney I've got the time
TTITLE9=Always on my mind
TTITLE10=Georgia on my mind
TTITLE11=Highway man
TTITLE12=Uncloudy day
TTITLE13=Heartbreak hotel
TTITLE14=Blue eyes crying in the rain
TTITLE15=Stay a little longer
EXTD=
EXTT0=
EXTT1=
EXTT2=
EXTT3=
EXTT4=
EXTT5=
EXTT6=
EXTT7=
EXTT8=
EXTT9=
EXTT10=
EXTT11=
EXTT12=
EXTT13=
EXTT14=
EXTT15=
PLAYORDER=
